<svg xmlns="http://www.w3.org/2000/svg" xmlns:xlink="http://www.w3.org/1999/xlink" version="1.1" id="Layer_1" x="0px" y="0px" viewBox="0 0 24 24" style="enable-background:new 0 0 24 24;" xml:space="preserve" fill="#22D3EE">
    <path d="M18.8,3.5c-1.2-1.9-3.2-2.9-5-2.4C13,1.4,12.2,2.2,12,3.1c-0.2-0.9-1-1.7-1.8-2c-1.8-0.5-3.8,0.5-5,2.4 c-1.4,2.2-1.8,5.1-1.1,8L5.5,15c0.5,1.9,1.6,4.7,4.3,6.2c0.7,0.4,1.4,0.7,2.2,0.8l0.2-2v-3.6c0-0.4,0.3-0.7,0.7-0.7 c0.4,0,0.7,0.3,0.7,0.7v3.6l0.2,2c0.8-0.1,1.5-0.4,2.2-0.8c2.7-1.5,3.8-4.3,4.3-6.2l1.4-3.5C20.6,8.6,20.2,5.7,18.8,3.5z"/>
</svg>
